<?xml version="1.0" encoding="UTF-8"?><svg xmlns="http://www.w3.org/2000/svg" xmlns:xlink="http://www.w3.org/1999/xlink" width="150pt" zoomAndPan="magnify" viewBox="0 0 150 37.5" height="37.5pt" preserveAspectRatio="xMidYMid meet" version="1.2"><defs><g/><clipPath xml:id="clip1" id="clip1"><path d="M 0.988281 0 L 14 0 L 14 37 L 0.988281 37 Z M 0.988281 0 "/></clipPath></defs><g xml:id="surface1" id="surface1"><g style="fill:rgb(0%,50.19989%,21.569824%);fill-opacity:1;"><g transform="translate(14.255734, 25.174391)"><path style="stroke:none;" d="M 11.375 0 L 10.609375 -2.953125 L 5.484375 -2.953125 L 4.6875 0 L 0 0 L 5.140625 -15.84375 L 10.828125 -15.84375 L 16.046875 0 Z M 9.71875 -6.453125 L 9.046875 -9.046875 C 8.878906 -9.617188 8.679688 -10.359375 8.453125 -11.265625 C 8.234375 -12.179688 8.085938 -12.835938 8.015625 -13.234375 C 7.953125 -12.867188 7.820312 -12.265625 7.625 -11.421875 C 7.4375 -10.578125 7.015625 -8.921875 6.359375 -6.453125 Z M 9.71875 -6.453125 "/></g></g><g style="fill:rgb(0%,50.19989%,21.569824%);fill-opacity:1;"><g transform="translate(30.301882, 25.174391)"><path style="stroke:none;" d="M 16.71875 0 L 11.140625 0 L 5.375 -11.109375 L 5.28125 -11.109375 C 5.414062 -9.359375 5.484375 -8.023438 5.484375 -7.109375 L 5.484375 0 L 1.703125 0 L 1.703125 -15.765625 L 7.265625 -15.765625 L 13.015625 -4.8125 L 13.078125 -4.8125 C 12.972656 -6.40625 12.921875 -7.679688 12.921875 -8.640625 L 12.921875 -15.765625 L 16.71875 -15.765625 Z M 16.71875 0 "/></g></g><g style="fill:rgb(0%,50.19989%,21.569824%);fill-opacity:1;"><g transform="translate(48.732824, 25.174391)"><path style="stroke:none;" d="M 16.71875 0 L 11.140625 0 L 5.375 -11.109375 L 5.28125 -11.109375 C 5.414062 -9.359375 5.484375 -8.023438 5.484375 -7.109375 L 5.484375 0 L 1.703125 0 L 1.703125 -15.765625 L 7.265625 -15.765625 L 13.015625 -4.8125 L 13.078125 -4.8125 C 12.972656 -6.40625 12.921875 -7.679688 12.921875 -8.640625 L 12.921875 -15.765625 L 16.71875 -15.765625 Z M 16.71875 0 "/></g></g><g style="fill:rgb(0%,50.19989%,21.569824%);fill-opacity:1;"><g transform="translate(67.163767, 25.174391)"><path style="stroke:none;" d="M 11.375 0 L 10.609375 -2.953125 L 5.484375 -2.953125 L 4.6875 0 L 0 0 L 5.140625 -15.84375 L 10.828125 -15.84375 L 16.046875 0 Z M 9.71875 -6.453125 L 9.046875 -9.046875 C 8.878906 -9.617188 8.679688 -10.359375 8.453125 -11.265625 C 8.234375 -12.179688 8.085938 -12.835938 8.015625 -13.234375 C 7.953125 -12.867188 7.820312 -12.265625 7.625 -11.421875 C 7.4375 -10.578125 7.015625 -8.921875 6.359375 -6.453125 Z M 9.71875 -6.453125 "/></g></g><g style="fill:rgb(100%,100%,100%);fill-opacity:1;"><g transform="translate(83.219036, 24.917577)"><path style="stroke:none;" d="M 10.796875 -4.3125 C 10.796875 -3.425781 10.570312 -2.640625 10.125 -1.953125 C 9.6875 -1.273438 9.046875 -0.75 8.203125 -0.375 C 7.359375 0 6.375 0.1875 5.25 0.1875 C 4.300781 0.1875 3.503906 0.125 2.859375 0 C 2.222656 -0.132812 1.5625 -0.367188 0.875 -0.703125 L 0.875 -4.109375 C 1.601562 -3.734375 2.359375 -3.441406 3.140625 -3.234375 C 3.929688 -3.023438 4.660156 -2.921875 5.328125 -2.921875 C 5.890625 -2.921875 6.300781 -3.019531 6.5625 -3.21875 C 6.832031 -3.414062 6.96875 -3.664062 6.96875 -3.96875 C 6.96875 -4.164062 6.914062 -4.335938 6.8125 -4.484375 C 6.707031 -4.628906 6.535156 -4.773438 6.296875 -4.921875 C 6.054688 -5.078125 5.425781 -5.382812 4.40625 -5.84375 C 3.488281 -6.257812 2.796875 -6.664062 2.328125 -7.0625 C 1.867188 -7.457031 1.523438 -7.910156 1.296875 -8.421875 C 1.078125 -8.929688 0.96875 -9.535156 0.96875 -10.234375 C 0.96875 -11.535156 1.441406 -12.550781 2.390625 -13.28125 C 3.347656 -14.007812 4.65625 -14.375 6.3125 -14.375 C 7.78125 -14.375 9.273438 -14.035156 10.796875 -13.359375 L 9.625 -10.40625 C 8.300781 -11.007812 7.160156 -11.3125 6.203125 -11.3125 C 5.703125 -11.3125 5.335938 -11.222656 5.109375 -11.046875 C 4.878906 -10.878906 4.765625 -10.664062 4.765625 -10.40625 C 4.765625 -10.125 4.910156 -9.875 5.203125 -9.65625 C 5.492188 -9.4375 6.273438 -9.035156 7.546875 -8.453125 C 8.765625 -7.898438 9.609375 -7.304688 10.078125 -6.671875 C 10.554688 -6.046875 10.796875 -5.257812 10.796875 -4.3125 Z M 10.796875 -4.3125 "/></g></g><g style="fill:rgb(0%,57.649231%,73.329163%);fill-opacity:1;"><g transform="translate(85.654109, 23.899709)"><path style="stroke:none;" d="M 10.796875 -4.3125 C 10.796875 -3.425781 10.570312 -2.640625 10.125 -1.953125 C 9.6875 -1.273438 9.046875 -0.75 8.203125 -0.375 C 7.359375 0 6.375 0.1875 5.25 0.1875 C 4.300781 0.1875 3.503906 0.125 2.859375 0 C 2.222656 -0.132812 1.5625 -0.367188 0.875 -0.703125 L 0.875 -4.109375 C 1.601562 -3.734375 2.359375 -3.441406 3.140625 -3.234375 C 3.929688 -3.023438 4.660156 -2.921875 5.328125 -2.921875 C 5.890625 -2.921875 6.300781 -3.019531 6.5625 -3.21875 C 6.832031 -3.414062 6.96875 -3.664062 6.96875 -3.96875 C 6.96875 -4.164062 6.914062 -4.335938 6.8125 -4.484375 C 6.707031 -4.628906 6.535156 -4.773438 6.296875 -4.921875 C 6.054688 -5.078125 5.425781 -5.382812 4.40625 -5.84375 C 3.488281 -6.257812 2.796875 -6.664062 2.328125 -7.0625 C 1.867188 -7.457031 1.523438 -7.910156 1.296875 -8.421875 C 1.078125 -8.929688 0.96875 -9.535156 0.96875 -10.234375 C 0.96875 -11.535156 1.441406 -12.550781 2.390625 -13.28125 C 3.347656 -14.007812 4.65625 -14.375 6.3125 -14.375 C 7.78125 -14.375 9.273438 -14.035156 10.796875 -13.359375 L 9.625 -10.40625 C 8.300781 -11.007812 7.160156 -11.3125 6.203125 -11.3125 C 5.703125 -11.3125 5.335938 -11.222656 5.109375 -11.046875 C 4.878906 -10.878906 4.765625 -10.664062 4.765625 -10.40625 C 4.765625 -10.125 4.910156 -9.875 5.203125 -9.65625 C 5.492188 -9.4375 6.273438 -9.035156 7.546875 -8.453125 C 8.765625 -7.898438 9.609375 -7.304688 10.078125 -6.671875 C 10.554688 -6.046875 10.796875 -5.257812 10.796875 -4.3125 Z M 10.796875 -4.3125 "/></g></g><g style="fill:rgb(0%,57.649231%,73.329163%);fill-opacity:1;"><g transform="translate(97.113904, 23.899709)"><path style="stroke:none;" d="M 7.78125 0 L 3.953125 0 L 3.953125 -11.046875 L 0.5 -11.046875 L 0.5 -14.171875 L 11.234375 -14.171875 L 11.234375 -11.046875 L 7.78125 -11.046875 Z M 7.78125 0 "/></g></g><g style="fill:rgb(0%,57.649231%,73.329163%);fill-opacity:1;"><g transform="translate(108.845166, 23.899709)"><path style="stroke:none;" d="M 14.796875 -7.109375 C 14.796875 -4.722656 14.207031 -2.910156 13.03125 -1.671875 C 11.863281 -0.429688 10.15625 0.1875 7.90625 0.1875 C 5.675781 0.1875 3.96875 -0.429688 2.78125 -1.671875 C 1.601562 -2.921875 1.015625 -4.738281 1.015625 -7.125 C 1.015625 -9.488281 1.601562 -11.289062 2.78125 -12.53125 C 3.957031 -13.78125 5.671875 -14.40625 7.921875 -14.40625 C 10.179688 -14.40625 11.890625 -13.785156 13.046875 -12.546875 C 14.210938 -11.316406 14.796875 -9.503906 14.796875 -7.109375 Z M 5.046875 -7.109375 C 5.046875 -4.367188 6 -3 7.90625 -3 C 8.875 -3 9.59375 -3.332031 10.0625 -4 C 10.53125 -4.664062 10.765625 -5.703125 10.765625 -7.109375 C 10.765625 -8.523438 10.523438 -9.570312 10.046875 -10.25 C 9.578125 -10.925781 8.867188 -11.265625 7.921875 -11.265625 C 6.003906 -11.265625 5.046875 -9.878906 5.046875 -7.109375 Z M 5.046875 -7.109375 "/></g></g><g style="fill:rgb(0%,57.649231%,73.329163%);fill-opacity:1;"><g transform="translate(124.667827, 23.899709)"><path style="stroke:none;" d="M 5.359375 -5.15625 L 5.359375 0 L 1.53125 0 L 1.53125 -14.171875 L 6.171875 -14.171875 C 10.023438 -14.171875 11.953125 -12.773438 11.953125 -9.984375 C 11.953125 -8.347656 11.148438 -7.078125 9.546875 -6.171875 L 13.6875 0 L 9.34375 0 L 6.328125 -5.15625 Z M 5.359375 -8.03125 L 6.078125 -8.03125 C 7.421875 -8.03125 8.09375 -8.625 8.09375 -9.8125 C 8.09375 -10.789062 7.4375 -11.28125 6.125 -11.28125 L 5.359375 -11.28125 Z M 5.359375 -8.03125 "/></g></g><g style="fill:rgb(0%,57.649231%,73.329163%);fill-opacity:1;"><g transform="translate(138.105454, 23.899709)"><path style="stroke:none;" d="M 9.953125 0 L 1.53125 0 L 1.53125 -14.171875 L 9.953125 -14.171875 L 9.953125 -11.109375 L 5.359375 -11.109375 L 5.359375 -8.875 L 9.609375 -8.875 L 9.609375 -5.796875 L 5.359375 -5.796875 L 5.359375 -3.125 L 9.953125 -3.125 Z M 9.953125 0 "/></g></g><g clip-rule="nonzero" clip-path="url(#clip1)"><g style="fill:rgb(0%,50.19989%,21.569824%);fill-opacity:1;"><g transform="translate(2.330403, 28.087257)"><path style="stroke:none;" d="M 0.828125 8.765625 C -0.546875 8.765625 -1.851562 8.628906 -3.09375 8.359375 L -3.09375 2.5 C -2.6875 2.570312 -2.253906 2.65625 -1.796875 2.75 C -1.335938 2.851562 -0.84375 2.90625 -0.3125 2.90625 C 0.9375 2.90625 1.828125 2.53125 2.359375 1.78125 C 2.898438 1.03125 3.171875 -0.253906 3.171875 -2.078125 L 3.171875 -27.890625 L 10.75 -27.890625 L 10.75 -2.734375 C 10.75 1.046875 9.921875 3.90625 8.265625 5.84375 C 6.609375 7.789062 4.128906 8.765625 0.828125 8.765625 Z M 0.828125 8.765625 "/></g></g></g></g></svg>